<svg width="56" height="56" viewBox="0 0 56 56" fill="none" xmlns="http://www.w3.org/2000/svg">
<g id="akar-icons:circle-check-fill">
<g id="Group">
<path id="Vector" fill-rule="evenodd" clip-rule="evenodd" d="M28 2.33337C13.825 2.33337 2.33337 13.825 2.33337 28C2.33337 42.175 13.825 53.6667 28 53.6667C42.175 53.6667 53.6667 42.175 53.6667 28C53.6667 13.825 42.175 2.33337 28 2.33337ZM39.1254 23.66C39.3302 23.4259 39.4862 23.1531 39.5841 22.8578C39.682 22.5624 39.7198 22.2505 39.6953 21.9403C39.6709 21.6302 39.5847 21.328 39.4417 21.0517C39.2988 20.7753 39.102 20.5303 38.863 20.3312C38.624 20.132 38.3475 19.9826 38.0499 19.8919C37.7523 19.8011 37.4396 19.7708 37.1301 19.8026C36.8206 19.8345 36.5206 19.928 36.2478 20.0775C35.9749 20.2271 35.7348 20.4296 35.5414 20.6734L25.508 32.711L20.3164 27.517C19.8763 27.092 19.2869 26.8568 18.6751 26.8621C18.0633 26.8674 17.4781 27.1128 17.0455 27.5455C16.6128 27.9781 16.3674 28.5633 16.3621 29.1751C16.3568 29.7869 16.592 30.3763 17.017 30.8164L24.017 37.8164C24.2463 38.0455 24.5208 38.2243 24.823 38.3415C25.1252 38.4587 25.4485 38.5116 25.7723 38.4969C26.0961 38.4822 26.4133 38.4002 26.7037 38.2561C26.994 38.112 27.2512 37.909 27.4587 37.66L39.1254 23.66Z" fill="white"/>
</g>
</g>
</svg>
