<svg width="103" height="47" viewBox="0 0 103 47" fill="none" xmlns="http://www.w3.org/2000/svg">
<path d="M0.189453 47V0.078125H14.627C18.752 0.078125 22.4365 1.0127 25.6807 2.88184C28.9463 4.72949 31.4922 7.37207 33.3184 10.8096C35.1445 14.2256 36.0576 18.1143 36.0576 22.4756V24.6348C36.0576 28.9961 35.1553 32.874 33.3506 36.2686C31.5674 39.6631 29.043 42.2949 25.7773 44.1641C22.5117 46.0332 18.8271 46.9785 14.7236 47H0.189453ZM9.85742 7.90918V39.2334H14.5303C18.3115 39.2334 21.2012 37.998 23.1992 35.5273C25.1973 33.0566 26.2178 29.5225 26.2607 24.9248V22.4434C26.2607 17.6738 25.2725 14.0645 23.2959 11.6152C21.3193 9.14453 18.4297 7.90918 14.627 7.90918H9.85742ZM43.1152 47V0.078125H59.5508C65.2441 0.078125 69.5625 1.17383 72.5059 3.36523C75.4492 5.53516 76.9209 8.72559 76.9209 12.9365C76.9209 15.2354 76.3301 17.2656 75.1484 19.0273C73.9668 20.7676 72.3232 22.0459 70.2178 22.8623C72.624 23.4639 74.5146 24.6777 75.8896 26.5039C77.2861 28.3301 77.9844 30.5645 77.9844 33.207C77.9844 37.7188 76.5449 41.1348 73.666 43.4551C70.7871 45.7754 66.6836 46.957 61.3555 47H43.1152ZM52.7832 26.5684V39.2334H61.0654C63.3428 39.2334 65.1152 38.6963 66.3828 37.6221C67.6719 36.5264 68.3164 35.0225 68.3164 33.1104C68.3164 28.8135 66.0928 26.6328 61.6455 26.5684H52.7832ZM52.7832 19.7363H59.9375C64.8145 19.6504 67.2529 17.7061 67.2529 13.9033C67.2529 11.7764 66.6299 10.251 65.3838 9.32715C64.1592 8.38184 62.2148 7.90918 59.5508 7.90918H52.7832V19.7363ZM102.767 30.6611H84.623V23.1523H102.767V30.6611Z" fill="white"/>
</svg>
