<svg width="56" height="56" viewBox="0 0 56 56" fill="none" xmlns="http://www.w3.org/2000/svg">
<path d="M37.8933 26.8566L41.5567 23.1933L32.8067 14.4433L29.1433 18.1066L19.4833 8.46998C17.6633 6.64998 14.7 6.64998 12.88 8.46998L8.44667 12.9033C6.62667 14.7233 6.62667 17.6866 8.44667 19.5066L18.0833 29.1433L7 40.25V49H15.75L26.8567 37.8933L36.4933 47.53C38.71 49.7466 41.6967 48.93 43.0967 47.53L47.53 43.0966C49.35 41.2766 49.35 38.3133 47.53 36.4933L37.8933 26.8566ZM21.42 25.83L11.76 16.1933L16.17 11.76L19.1333 14.7233L16.38 17.5L19.67 20.79L22.4467 18.0133L25.83 21.3966L21.42 25.83ZM39.8067 44.24L30.17 34.6033L34.6033 30.17L37.9867 33.5533L35.21 36.33L38.5 39.62L41.2767 36.8433L44.24 39.8066L39.8067 44.24ZM48.3233 16.4266C48.5396 16.2108 48.7113 15.9544 48.8283 15.6721C48.9454 15.3898 49.0057 15.0872 49.0057 14.7816C49.0057 14.476 48.9454 14.1735 48.8283 13.8912C48.7113 13.6089 48.5396 13.3525 48.3233 13.1366L42.8633 7.67664C41.7667 6.57998 40.25 6.99998 39.5733 7.67664L35.3033 11.9466L44.0533 20.6966L48.3233 16.4266Z" fill="white"/>
</svg>
