<svg width="96" height="96" viewBox="0 0 96 96" fill="none" xmlns="http://www.w3.org/2000/svg">
<path d="M36.2248 77.5875L9.48729 50.9925C9.33309 50.8392 9.21072 50.6569 9.12722 50.4561C9.04372 50.2553 9.00073 50.04 9.00073 49.8225C9.00073 49.6051 9.04372 49.3897 9.12722 49.1889C9.21072 48.9882 9.33309 48.8058 9.48729 48.6525L16.2373 41.895C16.8823 41.25 17.9248 41.25 18.5698 41.895L36.1723 59.3925C36.8173 60.0375 37.8673 60.03 38.5123 59.385L77.4073 20.115C78.0523 19.4625 79.1023 19.4625 79.7548 20.1075L86.5123 26.865C87.1573 27.51 87.1573 28.5525 86.5198 29.1975L44.1448 71.955L44.1523 71.9625L38.5648 77.58C37.9198 78.225 36.8698 78.225 36.2248 77.5875Z" fill="#056088"/>
</svg>
