<svg width="16" height="16" viewBox="0 0 16 16" fill="none" xmlns="http://www.w3.org/2000/svg">
<path d="M13.5 4.00001H10.9575C10.8395 3.30101 10.4777 2.66642 9.93626 2.20879C9.39487 1.75116 8.70889 1.50008 8 1.50008C7.29111 1.50008 6.60513 1.75116 6.06374 2.20879C5.52235 2.66642 5.16054 3.30101 5.0425 4.00001H2.5C2.23487 4.00031 1.98069 4.10576 1.79322 4.29323C1.60575 4.4807 1.5003 4.73488 1.5 5.00001V13C1.5003 13.2651 1.60575 13.5193 1.79322 13.7068C1.98069 13.8943 2.23487 13.9997 2.5 14H13.5C13.7651 13.9997 14.0193 13.8943 14.2068 13.7068C14.3942 13.5193 14.4997 13.2651 14.5 13V5.00001C14.4997 4.73488 14.3942 4.4807 14.2068 4.29323C14.0193 4.10576 13.7651 4.00031 13.5 4.00001ZM8 2.50001C8.44327 2.50059 8.87383 2.64814 9.22428 2.91957C9.57472 3.19099 9.82527 3.57097 9.93669 4.00001H6.06331C6.17473 3.57097 6.42528 3.19099 6.77572 2.91957C7.12617 2.64814 7.55673 2.50059 8 2.50001Z" fill="#434343"/>
</svg>
